<svg viewBox="0 0 1400 1400" xmlns="http://www.w3.org/2000/svg">
  <path d="M822.477, 157.732C835.556, 157.822 851.145, 163.14 857.507, 184.231C867.948, 218.841 867.558, 271.148 865.507, 292.231C863.457, 313.314 863.508, 593.353 860.507, 611.231C860.507, 611.231 859.234, 680.862 866.422, 694.078L866.507, 694.231C866.507, 694.231 953.401, 641.977 992.507, 646.231C992.507, 646.231 1033.27, 649.928 1032.51, 664.231C1031.75, 678.533 1013.69, 863.23 984.507, 932.231C984.507, 932.231 977.135, 966.048 950.507, 963.231C950.507, 963.231 919.836, 965.818 919.507, 921.231C919.179, 876.644 932.745, 759.722 934.507, 746.231C934.507, 746.231 939.107, 717.89 933.507, 718.231C927.908, 718.571 927.615, 724.26 926.507, 735.231C925.4, 746.202 916.914, 815.985 913.507, 826.231C910.101, 836.476 906.973, 915.415 908.507, 924.231C910.042, 933.047 906.797, 955.122 927.507, 969.231C948.218, 983.34 976.865, 974.393 982.507, 962.231C982.507, 962.231 979.302, 1009.93 1010.51, 1018.23C1041.71, 1026.53 1050.71, 1023.66 1070.51, 995.231C1070.51, 995.231 1070.21, 1033.55 1112.51, 1033.23C1154.8, 1032.91 1165.6, 975.058 1179.51, 939.231C1179.51, 939.231 1201.14, 1012.26 1185.51, 1095.23C1169.87, 1178.2 1160.92, 1182.19 1129.51, 1208.23C1129.51, 1208.23 1091.62, 1226.9 1037.51, 1221.23C1037.51, 1221.23 1022.41, 1220.8 1012.51, 1224.23C1002.61, 1227.66 974.107, 1243.13 944.507, 1242.23C914.908, 1241.33 796.423, 1211.17 743.507, 1211.23C690.592, 1211.29 608.223, 1177.18 581.507, 1170.23C554.792, 1163.29 514.483, 1142.17 500.507, 1136.23C486.532, 1130.3 453.547, 1113.34 407.507, 1114.23C361.468, 1115.12 225.255, 1119.59 211.507, 1105.23C197.76, 1090.88 238.367, 1036.8 295.507, 1013.23C352.647, 989.666 429.233, 987.048 450.507, 987.231C471.782, 987.414 670.725, 989.08 683.507, 983.231C696.29, 977.381 729.188, 984.295 730.507, 904.231C731.827, 824.167 745.608, 470.346 747.507, 441.231C749.407, 412.116 758.812, 352.919 756.507, 335.231C754.203, 317.542 750.54, 256.611 757.507, 222.231C764.475, 187.85 795.235, 164.978 803.507, 161.231C806.674, 159.796 813.8, 157.759 821.975, 157.731L822.477, 157.732ZM1141.51, 803.231C1146.99, 801.805 1151.5, 803.273 1153.93, 803.732C1159.34, 804.747 1165.09, 807.307 1169.14, 811.066C1180.85, 821.923 1183.69, 838.794 1183.36, 854.019C1183.16, 863.137 1182.14, 872.259 1180.51, 881.231C1177.26, 899.027 1173.31, 916.708 1168.72, 934.205C1165.47, 946.578 1161.35, 958.717 1157.01, 970.75C1148.31, 994.875 1139.93, 1022.33 1110.21, 1023.99C1106.95, 1024.17 1103.59, 1024.08 1100.44, 1023.22C1087.99, 1019.81 1084.27, 1009.01 1083.51, 997.231C1083.03, 989.919 1083.25, 982.564 1083.69, 975.25C1084.27, 965.655 1089.68, 955.594 1091.51, 946.231C1094.15, 932.672 1100.86, 897.099 1102.75, 879.131C1104.44, 863.048 1101.94, 840.872 1110.72, 826.203C1118.03, 813.986 1128.5, 806.615 1141.51, 803.231ZM1038.51, 735.231C1038.51, 735.231 1039.81, 733.49 1042.06, 732.302C1055.92, 724.985 1104.78, 701.717 1108.51, 729.231C1112.84, 761.212 1100.58, 810.672 1098.51, 832.231C1096.44, 853.789 1087.06, 930.225 1082.51, 944.231C1077.95, 958.237 1067.18, 990.255 1048.51, 1006.23C1029.83, 1022.21 998.62, 1008.55 995.507, 978.231C992.395, 947.91 991.704, 937.298 999.507, 917.231C1007.31, 897.163 1014.69, 860.536 1016.51, 849.231C1018.33, 837.926 1032.79, 741.05 1038.51, 735.231Z"/>
</svg>
