<svg viewBox="0 0 600 300" xmlns="http://www.w3.org/2000/svg">
  <path d="M235.268, 116.274L235.268, 92.658C235.268, 58.098 262.34, 39.09 296.036, 47.442L289.988, 74.514C274.436, 70.77 264.356, 78.546 264.356, 94.962L264.356, 116.274L318.5, 116.274L318.5, 72.498L347.876, 72.498L347.876, 116.274L379.556, 116.274L379.556, 141.33L347.876, 141.33L347.876, 213.33C347.876, 224.85 353.06, 227.73 360.836, 227.73L376.1, 227.73L376.1, 254.514L347.876, 254.514C327.716, 254.226 318.5, 240.978 318.5, 218.802L318.5, 141.33L264.356, 141.33C264.356, 187.409 264.644, 250.189 264.644, 254.514L235.268, 254.514L235.268, 141.33L217.7, 141.33L217.7, 116.274L235.268, 116.274ZM118.372, 50.034L118.372, 225.426L207.364, 225.426L207.364, 254.514L89.284, 254.514L89.284, 50.034L118.372, 50.034ZM438.377, 153.414L479.921, 49.99L510.716, 49.99L428.5, 254.514L397.705, 254.514L424.142, 188.567L361.1, 49.99L392.185, 49.99L438.377, 153.414ZM152.06, 141.683C155.031, 149.189 161.755, 154.192 169.729, 154.192C177.548, 154.192 183.646, 150.752 186.148, 145.279L203.818, 152.003C198.501, 165.294 185.21, 173.426 169.729, 173.426C148.776, 173.426 131.732, 155.6 131.732, 133.708C131.732, 111.816 148.776, 93.99 169.729, 93.99C185.523, 93.99 198.971, 102.903 204.6, 116.976C207.571, 124.638 207.571, 134.177 207.571, 134.177L207.571, 141.683L152.06, 141.683ZM187.868, 126.828C187.399, 123.856 184.741, 119.165 182.083, 117.133C178.799, 114.474 174.577, 112.911 169.729, 112.911C161.442, 112.911 154.405, 118.696 151.747, 126.828L187.868, 126.828Z"/>
</svg>
